<svg
          id="my-svg"
          width="885"
          height="287"
          viewBox="0 0 885 287"
          fill="none"
          xmlns="http://www.w3.org/2000/svg"
        >
          <path
            d="M11.6618 46.3923C11.6618 44.0823 13.5344 42.2096 15.8445 42.2096H166.424C168.734 42.2096 170.606 44.0823 170.606 46.3924V273.021C170.606 279.112 165.669 284.049 159.579 284.049H22.689C16.5988 284.049 11.6618 279.112 11.6618 273.021V46.3923Z"
            fill="white"
            stroke="black"
            stroke-width="5.3235"
          />
          <path
            fill-rule="evenodd"
            clip-rule="evenodd"
            d="M72.1211 0H9V32.7015C9 36.4816 12.0644 39.546 15.8445 39.546H166.424C170.204 39.546 173.268 36.4816 173.268 32.7015V0H109.378C109.175 10.1148 100.913 18.252 90.7495 18.252C80.5863 18.252 72.3236 10.1148 72.1211 0Z"
            fill="black"
          />
          <rect
            x="18.125"
            y="36.5029"
            width="6.8445"
            height="5.3235"
            fill="white"
          />
          <rect
            x="33.335"
            y="36.5029"
            width="6.8445"
            height="5.3235"
            fill="white"
          />
          <rect
            x="48.5459"
            y="36.5029"
            width="6.8445"
            height="5.3235"
            fill="white"
          />
          <rect
            x="63.7549"
            y="36.5029"
            width="6.8445"
            height="5.3235"
            fill="white"
          />
          <rect
            x="78.9648"
            y="36.5029"
            width="6.8445"
            height="5.3235"
            fill="white"
          />
          <rect
            x="94.1748"
            y="36.5029"
            width="6.8445"
            height="5.3235"
            fill="white"
          />
          <rect
            x="109.385"
            y="36.5029"
            width="6.8445"
            height="5.3235"
            fill="white"
          />
          <rect
            x="124.596"
            y="36.5029"
            width="6.8445"
            height="5.3235"
            fill="white"
          />
          <rect
            x="139.805"
            y="36.5029"
            width="6.8445"
            height="5.3235"
            fill="white"
          />
          <rect
            x="155.015"
            y="36.5029"
            width="6.8445"
            height="5.3235"
            fill="white"
          />
          <path
            d="M37.8589 259.483H36.0023C35.1977 259.483 34.3931 259.39 33.5886 259.204C32.1651 258.895 31.4534 257.626 31.4534 255.398C31.4534 254.346 31.8247 252.675 32.5674 250.385C32.753 250.013 32.8768 249.673 32.9387 249.364C34.9811 243.113 36.8997 236.862 38.6945 230.611L43.429 215.293C47.4518 202.235 49.4633 195.674 49.4633 195.612C49.4633 195.551 52.9291 183.544 59.8607 159.593C71.1246 121.283 77.3445 100.302 78.5204 96.6509L79.6345 92.659C79.6345 92.3495 79.4488 92.1948 79.0775 92.1948C67.5041 92.4424 55.9307 92.7828 44.3574 93.216L36.0951 93.4945C24.8931 93.742 13.8767 94.5466 3.04601 95.9082H2.76751C1.15838 95.9082 0.353811 94.5157 0.353811 91.7306C0.353811 90.8023 0.570424 90.1524 1.00365 89.7811C1.43688 89.3479 2.30333 89.1313 3.60302 89.1313C11.463 89.1313 25.0168 88.7909 44.2645 88.1101C64.6881 87.615 76.8804 87.3674 80.8413 87.3674C81.1508 87.3055 81.3674 87.1508 81.4912 86.9032C83.3478 80.4048 85.7615 73.0709 88.7322 64.9015C89.3511 63.4161 90.3414 62.6734 91.7029 62.6734C93.0645 62.7353 94.5499 63.1686 96.159 63.9731C97.5206 64.5301 98.2014 65.5513 98.2014 67.0367C98.2014 67.4699 98.1085 67.9341 97.9229 68.4292C96.3137 72.1426 94.7974 75.9488 93.374 79.8478C91.7648 84.1182 90.9603 86.3153 90.9603 86.4391C90.9603 86.8723 91.1769 87.0889 91.6101 87.0889C103.74 86.9032 115.84 86.7795 127.908 86.7176L148.889 86.9032C149.879 86.9651 150.9 86.9961 151.953 86.9961C157.089 87.1199 161.298 87.3674 164.578 87.7388C168.291 87.9863 170.148 89.6883 170.148 92.8446C170.148 93.3398 169.993 94.0206 169.684 94.887C169.436 95.6916 168.26 96.4961 166.156 97.3007L165.135 97.3935C164.392 97.3935 163.65 97.0841 162.907 96.4652C162.226 95.7844 161.731 94.7942 161.422 93.4945C161.298 93.2469 161.081 93.0922 160.772 93.0303C160.462 92.9684 160.122 92.9375 159.751 92.9375C158.389 92.9375 157.461 92.8756 156.966 92.7518C150.529 92.3805 144.309 92.102 138.306 91.9163L118.254 91.8235C108.661 91.8235 99.0369 91.8854 89.3821 92.0091C88.7632 92.0091 83.5954 107.358 73.8787 138.055C64.2239 170.485 58.4373 190.197 56.5187 197.191C53.548 207.65 50.5154 219.595 47.4209 233.025L46.214 238.038C44.7906 243.732 43.7075 248.868 42.9648 253.448L42.315 257.069C42.0674 258.678 40.5821 259.483 37.8589 259.483Z"
            fill="black"
          />
          <path
            d="M208.628 135.341C209.389 135.341 210.149 136.102 210.149 137.052V234.396C210.149 235.157 209.389 235.917 208.628 235.917H180.49C179.539 235.917 178.969 235.157 178.969 234.396V137.052C178.969 136.102 179.539 135.341 180.49 135.341H208.628ZM208.628 103.78C209.389 103.78 210.149 104.541 210.149 105.301V125.835C210.149 126.785 209.389 127.546 208.628 127.546H180.49C179.539 127.546 178.969 126.785 178.969 125.835V105.301C178.969 104.541 179.539 103.78 180.49 103.78H208.628Z"
            fill="black"
          />
          <path
            d="M315.135 211.771C315.896 212.342 316.086 213.292 315.706 214.053C314.755 215.384 313.614 217.095 313.044 217.855C312.093 219.186 310.953 220.517 309.812 221.658C309.812 221.658 309.812 221.658 309.812 221.848C309.432 222.228 308.671 222.989 308.101 223.559C308.101 223.559 307.911 223.559 307.911 223.749C307.34 224.129 306.96 224.7 306.39 225.08C306.2 225.27 305.819 225.65 305.629 225.841C305.439 226.031 305.249 226.221 305.059 226.411C297.264 232.875 287.757 237.058 277.681 238.579C277.301 238.579 276.92 238.579 276.54 238.579C276.16 238.769 275.78 238.769 275.399 238.769C274.639 238.769 274.068 238.959 273.308 238.959C273.118 238.959 272.928 238.959 272.738 238.959C271.977 238.959 271.026 238.959 270.266 238.959C240.797 238.959 217.031 215.384 217.031 186.485C217.031 157.396 240.797 133.82 270.266 133.82C271.026 133.82 271.977 133.82 272.738 133.82C272.928 133.82 273.118 133.82 273.308 133.82C274.068 134.01 274.639 134.01 275.399 134.01C275.78 134.01 276.16 134.2 276.54 134.2C276.92 134.2 277.301 134.2 277.681 134.2C287.757 135.721 297.264 139.904 305.059 146.368C305.249 146.558 305.439 146.749 305.629 146.939C305.819 147.319 306.2 147.509 306.39 147.699C306.96 148.27 307.34 148.65 307.911 149.03C307.911 149.22 308.101 149.22 308.101 149.41C308.671 149.791 309.242 150.361 309.622 150.931C309.812 150.931 309.812 151.121 309.812 151.121C310.953 152.452 312.093 153.593 313.044 154.924C313.995 156.255 314.945 157.586 315.896 159.107C316.276 159.677 316.086 160.438 315.516 160.818L301.256 168.993L292.891 173.746C292.32 174.127 291.37 173.936 290.799 173.366C286.236 166.141 279.582 162.339 271.977 162.339C264.372 162.339 257.718 165.571 253.155 170.894C249.352 175.077 247.071 180.401 247.071 186.485C247.071 192.379 249.352 197.892 253.155 201.885C257.718 207.208 264.372 210.631 271.977 210.631C279.582 210.631 286.236 206.638 290.799 199.603C291.37 198.843 292.32 198.653 292.891 199.033L315.135 211.771Z"
            fill="black"
          />
          <path
            d="M380.28 186.485L408.609 233.446C409.179 234.586 408.418 235.917 407.278 235.917H374.576C374.006 235.917 373.435 235.537 373.245 235.157L357.085 204.927C356.324 203.596 354.043 204.166 354.043 205.687V234.396C354.043 235.157 353.282 235.917 352.522 235.917H324.383C323.433 235.917 322.862 235.157 322.862 234.396V105.301C322.862 104.541 323.433 103.78 324.383 103.78H352.522C353.282 103.78 354.043 104.541 354.043 105.301V165.571C354.043 167.282 356.324 167.852 357.085 166.331L373.245 136.292C373.435 135.721 374.006 135.341 374.576 135.341H407.278C408.418 135.341 409.179 136.862 408.609 137.813L380.28 184.774C380.09 185.344 380.09 185.914 380.28 186.485Z"
            fill="black"
          />
          <path
            d="M505.779 171.655C507.3 176.408 508.06 181.351 508.06 186.485C508.06 189.337 507.68 192.759 507.11 195.801C507.11 196.561 506.349 197.132 505.589 197.132H435.242C433.912 197.132 433.151 198.463 433.721 199.603C438.094 206.828 445.889 211.391 454.445 211.391C461.67 211.391 468.514 208.349 473.267 202.075C473.648 201.695 474.218 201.314 474.979 201.505L501.786 206.258C502.927 206.448 503.497 207.589 502.927 208.539C502.357 209.87 501.596 211.391 501.216 212.152L500.836 212.912C500.265 213.673 499.885 214.243 499.505 215.194C498.744 216.144 498.174 216.905 497.603 217.665L497.223 218.045C497.033 218.426 496.843 218.616 496.653 218.806L496.463 219.186C496.082 219.757 495.702 220.137 495.322 220.517L494.942 220.897C494.371 221.658 493.801 222.228 493.231 222.799L492.85 223.179C492.28 223.749 491.9 224.129 491.519 224.51L491.329 224.7C490.949 225.08 490.379 225.46 489.998 225.841L489.428 226.411L488.858 225.841L489.238 226.411C488.477 227.171 487.907 227.742 487.147 228.122L486.576 228.692C485.626 229.263 484.865 229.833 483.914 230.404L483.724 230.594C482.774 231.164 481.823 231.734 480.682 232.305L480.492 232.495C480.302 232.685 479.922 232.875 479.732 232.875L479.542 233.065C479.161 233.255 478.591 233.446 478.211 233.636L478.021 233.826C477.07 234.206 476.119 234.586 475.169 234.967V235.157C474.408 235.347 474.028 235.537 473.458 235.727L472.697 235.917C472.127 236.107 471.366 236.488 470.796 236.678H470.606C469.845 236.868 469.085 237.058 468.324 237.248L467.754 237.438C466.233 237.818 464.712 238.199 463.191 238.389L462.62 238.579C460.909 238.769 459.388 238.959 457.677 238.959H457.107C456.156 239.149 455.396 239.149 454.635 239.149C453.875 239.149 453.114 239.149 452.164 238.959C451.973 238.959 451.783 238.959 451.593 238.959H451.403C450.833 238.959 450.262 238.959 449.692 238.769H449.502C449.312 238.769 449.122 238.769 448.931 238.769C447.981 238.769 447.22 238.579 446.65 238.389H446.08C445.509 238.389 444.749 238.199 444.178 238.009L443.418 237.818C442.847 237.818 442.277 237.628 441.707 237.438H441.517C441.326 237.438 441.326 237.438 441.136 237.438C440.186 237.058 439.425 236.868 438.855 236.678C438.094 236.488 437.334 236.297 436.573 235.917C436.383 235.917 436.193 235.917 436.003 235.727C435.433 235.537 434.862 235.347 434.292 235.157L434.102 234.967C433.912 234.967 433.912 234.967 433.721 234.776C432.961 234.586 432.2 234.206 431.63 233.826H431.44C430.87 233.636 430.109 233.255 429.539 232.875C429.349 232.685 429.158 232.685 428.968 232.495H428.778C428.398 232.305 427.828 231.925 427.447 231.734L426.687 231.354C426.116 230.974 425.546 230.594 424.786 230.023C418.511 225.841 412.998 220.137 409.005 213.673C408.625 213.102 408.435 212.722 408.055 212.152L407.864 211.771C407.674 211.391 407.294 210.821 407.104 210.25L406.914 209.87C406.724 209.68 406.724 209.68 406.724 209.49C405.583 207.398 404.822 205.117 404.062 202.835C403.492 201.695 403.301 200.554 402.921 199.603C402.731 198.843 402.541 197.892 402.351 197.132C401.78 194.47 401.59 191.808 401.4 189.146C401.4 188.196 401.4 187.435 401.4 186.485C401.4 185.534 401.4 184.583 401.4 183.823C401.59 179.07 402.541 174.507 404.062 169.944C404.442 168.423 405.013 167.282 405.583 165.951C405.773 165.191 406.153 164.62 406.534 163.86C406.534 163.67 406.534 163.48 406.724 163.289L406.914 162.909C406.914 162.909 407.104 162.719 407.104 162.529C407.294 162.339 407.294 162.149 407.484 161.959L407.864 161.198C408.245 160.438 408.625 159.867 409.005 159.107C412.998 152.642 418.511 147.129 424.786 142.756C425.546 142.376 426.116 141.995 426.687 141.615L427.447 141.235C427.828 140.855 428.398 140.665 428.778 140.474L428.968 140.284C429.158 140.284 429.349 140.094 429.539 140.094C430.109 139.714 430.87 139.334 431.44 138.953C432.2 138.763 432.961 138.383 433.721 138.003C433.912 138.003 433.912 138.003 434.102 137.813H434.292C434.862 137.623 435.433 137.432 436.003 137.242V137.052C436.193 137.052 436.383 137.052 436.573 136.862C437.334 136.672 438.094 136.482 438.855 136.102C439.615 135.911 440.376 135.721 441.136 135.531C441.326 135.531 441.326 135.531 441.517 135.341H441.707C442.277 135.151 442.847 135.151 443.418 134.961H443.798C444.559 134.771 445.699 134.581 446.46 134.39C446.65 134.39 446.65 134.39 446.65 134.39C447.22 134.39 447.981 134.2 448.931 134.2C449.122 134.2 449.312 134.01 449.502 134.01H449.692C450.262 134.01 450.833 134.01 451.403 134.01H451.593C451.783 133.82 451.973 133.82 452.164 133.82C453.114 133.82 453.875 133.82 454.635 133.82C455.396 133.82 456.156 133.82 457.107 133.82L457.677 134.01C459.388 134.01 460.909 134.2 462.43 134.39L463.191 134.581C464.712 134.771 466.233 134.961 467.754 135.341L468.324 135.531C469.085 135.721 469.845 136.102 470.606 136.292H470.796C471.366 136.482 472.127 136.672 472.697 136.862C472.887 137.052 473.077 137.052 473.267 137.242C474.028 137.432 474.408 137.623 474.979 137.813H475.359C476.119 138.193 477.07 138.763 478.021 139.144H478.211C478.591 139.524 479.161 139.714 479.542 139.904L479.351 140.665L479.732 139.904C479.922 140.094 480.302 140.284 480.492 140.474C481.443 140.855 482.774 141.805 483.724 142.376C484.675 142.946 485.626 143.516 486.386 144.277H486.576C486.766 144.467 486.956 144.657 487.147 144.657C487.907 145.228 488.477 145.798 489.238 146.368L489.808 146.749C490.379 147.319 490.759 147.699 491.329 148.27L491.519 148.46C491.9 148.84 492.28 149.22 492.85 149.6L493.04 149.981C493.801 150.741 494.371 151.312 494.942 151.882L494.371 152.642L494.942 152.072L495.322 152.452C495.702 152.833 496.082 153.213 496.463 153.593L496.653 153.973C497.033 154.544 497.603 155.114 497.984 155.684C498.364 156.065 498.554 156.635 498.934 157.015L499.505 157.776C499.695 158.346 499.885 158.726 500.265 159.107L501.216 160.628C503.117 164.24 504.638 167.852 505.779 171.655ZM474.979 175.077C475.929 175.077 476.69 174.127 476.5 173.176C475.359 165.761 466.803 159.867 455.966 159.867C445.889 159.867 436.573 165.761 435.242 173.176C435.052 174.127 435.813 175.077 436.763 175.077H474.979Z"
            fill="black"
          />
          <path
            d="M568.403 209.87C569.353 209.87 570.114 210.631 569.924 211.581L566.311 235.347C566.311 236.107 565.741 236.678 564.98 236.868C561.368 237.058 552.242 237.438 549.39 237.438C549.2 237.438 549.01 237.438 548.82 237.438C531.899 236.678 522.773 227.932 522.773 212.152V163.86C522.773 163.099 522.012 162.339 521.252 162.339H510.795C509.844 162.339 509.274 161.578 509.274 160.628V136.862C509.274 136.102 509.844 135.341 510.795 135.341H521.252C522.012 135.341 522.773 134.581 522.773 133.63V106.062C522.773 105.301 523.533 104.541 524.484 104.541H552.432C553.383 104.541 554.143 105.301 554.143 106.062V133.63C554.143 134.581 554.904 135.341 555.664 135.341H566.121C567.072 135.341 567.832 136.102 567.832 136.862V160.628C567.832 161.578 567.072 162.339 566.121 162.339H555.664C554.904 162.339 554.143 163.099 554.143 163.86C554.143 172.225 554.143 196.942 554.143 197.132V197.892C553.953 200.934 553.763 205.117 556.235 207.589C557.756 209.11 560.037 209.87 562.889 209.87H568.403Z"
            fill="black"
          />
          <path
            d="M611.344 135.341C612.105 135.341 612.865 136.102 612.865 137.052V234.396C612.865 235.157 612.105 235.917 611.344 235.917H583.206C582.255 235.917 581.685 235.157 581.685 234.396V137.052C581.685 136.102 582.255 135.341 583.206 135.341H611.344ZM611.344 103.78C612.105 103.78 612.865 104.541 612.865 105.301V125.835C612.865 126.785 612.105 127.546 611.344 127.546H583.206C582.255 127.546 581.685 126.785 581.685 125.835V105.301C581.685 104.541 582.255 103.78 583.206 103.78H611.344Z"
            fill="black"
          />
          <path
            d="M717.355 234.206C717.545 235.157 716.785 235.917 715.834 235.917H626.095C624.955 235.917 624.194 234.586 624.764 233.446L663.93 165.571C664.501 164.43 663.74 163.099 662.599 163.099H629.137C628.377 163.099 627.616 162.529 627.426 161.768L624.574 137.242C624.384 136.292 625.145 135.341 626.095 135.341H714.123C715.264 135.341 716.024 136.672 715.454 137.813L676.288 205.877C675.718 206.828 676.478 208.159 677.619 208.159H712.792C713.553 208.159 714.313 208.919 714.313 209.68L717.355 234.206Z"
            fill="black"
          />
          <path
            d="M820.302 171.655C821.823 176.408 822.584 181.351 822.584 186.485C822.584 189.337 822.203 192.759 821.633 195.801C821.633 196.561 820.872 197.132 820.112 197.132H749.766C748.435 197.132 747.674 198.463 748.245 199.603C752.617 206.828 760.413 211.391 768.968 211.391C776.193 211.391 783.038 208.349 787.791 202.075C788.171 201.695 788.741 201.314 789.502 201.505L816.309 206.258C817.45 206.448 818.021 207.589 817.45 208.539C816.88 209.87 816.119 211.391 815.739 212.152L815.359 212.912C814.788 213.673 814.408 214.243 814.028 215.194C813.267 216.144 812.697 216.905 812.127 217.665L811.746 218.045C811.556 218.426 811.366 218.616 811.176 218.806L810.986 219.186C810.606 219.757 810.225 220.137 809.845 220.517L809.465 220.897C808.895 221.658 808.324 222.228 807.754 222.799L807.374 223.179C806.803 223.749 806.423 224.129 806.043 224.51L805.853 224.7C805.472 225.08 804.902 225.46 804.522 225.841L803.951 226.411L803.381 225.841L803.761 226.411C803.001 227.171 802.43 227.742 801.67 228.122L801.099 228.692C800.149 229.263 799.388 229.833 798.438 230.404L798.248 230.594C797.297 231.164 796.346 231.734 795.206 232.305L795.015 232.495C794.825 232.685 794.445 232.875 794.255 232.875L794.065 233.065C793.685 233.255 793.114 233.446 792.734 233.636L792.544 233.826C791.593 234.206 790.643 234.586 789.692 234.967V235.157C788.931 235.347 788.551 235.537 787.981 235.727L787.22 235.917C786.65 236.107 785.889 236.488 785.319 236.678H785.129C784.368 236.868 783.608 237.058 782.847 237.248L782.277 237.438C780.756 237.818 779.235 238.199 777.714 238.389L777.144 238.579C775.433 238.769 773.912 238.959 772.2 238.959H771.63C770.679 239.149 769.919 239.149 769.158 239.149C768.398 239.149 767.637 239.149 766.687 238.959C766.497 238.959 766.307 238.959 766.116 238.959H765.926C765.356 238.959 764.786 238.959 764.215 238.769H764.025C763.835 238.769 763.645 238.769 763.455 238.769C762.504 238.769 761.744 238.579 761.173 238.389H760.603C760.032 238.389 759.272 238.199 758.702 238.009L757.941 237.818C757.371 237.818 756.8 237.628 756.23 237.438H756.04C755.85 237.438 755.85 237.438 755.66 237.438C754.709 237.058 753.948 236.868 753.378 236.678C752.618 236.488 751.857 236.297 751.097 235.917C750.906 235.917 750.716 235.917 750.526 235.727C749.956 235.537 749.385 235.347 748.815 235.157L748.625 234.967C748.435 234.967 748.435 234.967 748.245 234.776C747.484 234.586 746.724 234.206 746.153 233.826H745.963C745.393 233.636 744.632 233.255 744.062 232.875C743.872 232.685 743.682 232.685 743.492 232.495H743.301C742.921 232.305 742.351 231.925 741.971 231.734L741.21 231.354C740.64 230.974 740.069 230.594 739.309 230.023C733.035 225.841 727.521 220.137 723.528 213.673C723.148 213.102 722.958 212.722 722.578 212.152L722.388 211.771C722.198 211.391 721.817 210.821 721.627 210.25L721.437 209.87C721.247 209.68 721.247 209.68 721.247 209.49C720.106 207.398 719.346 205.117 718.585 202.835C718.015 201.695 717.825 200.554 717.444 199.603C717.254 198.843 717.064 197.892 716.874 197.132C716.304 194.47 716.114 191.808 715.923 189.146C715.923 188.196 715.923 187.435 715.923 186.485C715.923 185.534 715.923 184.583 715.923 183.823C716.114 179.07 717.064 174.507 718.585 169.944C718.965 168.423 719.536 167.282 720.106 165.951C720.296 165.191 720.677 164.62 721.057 163.86C721.057 163.67 721.057 163.48 721.247 163.289L721.437 162.909C721.437 162.909 721.627 162.719 721.627 162.529C721.817 162.339 721.817 162.149 722.007 161.959L722.388 161.198C722.768 160.438 723.148 159.867 723.528 159.107C727.521 152.642 733.035 147.129 739.309 142.756C740.069 142.376 740.64 141.995 741.21 141.615L741.971 141.235C742.351 140.855 742.921 140.665 743.301 140.474L743.492 140.284C743.682 140.284 743.872 140.094 744.062 140.094C744.632 139.714 745.393 139.334 745.963 138.953C746.724 138.763 747.484 138.383 748.245 138.003C748.435 138.003 748.435 138.003 748.625 137.813H748.815C749.385 137.623 749.956 137.432 750.526 137.242V137.052C750.716 137.052 750.906 137.052 751.097 136.862C751.857 136.672 752.618 136.482 753.378 136.102C754.139 135.911 754.899 135.721 755.66 135.531C755.85 135.531 755.85 135.531 756.04 135.341H756.23C756.8 135.151 757.371 135.151 757.941 134.961H758.321C759.082 134.771 760.223 134.581 760.983 134.39C761.173 134.39 761.173 134.39 761.173 134.39C761.744 134.39 762.504 134.2 763.455 134.2C763.645 134.2 763.835 134.01 764.025 134.01H764.215C764.786 134.01 765.356 134.01 765.926 134.01H766.116C766.307 133.82 766.497 133.82 766.687 133.82C767.637 133.82 768.398 133.82 769.158 133.82C769.919 133.82 770.679 133.82 771.63 133.82L772.2 134.01C773.912 134.01 775.433 134.2 776.954 134.39L777.714 134.581C779.235 134.771 780.756 134.961 782.277 135.341L782.847 135.531C783.608 135.721 784.368 136.102 785.129 136.292H785.319C785.889 136.482 786.65 136.672 787.22 136.862C787.41 137.052 787.601 137.052 787.791 137.242C788.551 137.432 788.931 137.623 789.502 137.813H789.882C790.643 138.193 791.593 138.763 792.544 139.144H792.734C793.114 139.524 793.685 139.714 794.065 139.904L793.875 140.665L794.255 139.904C794.445 140.094 794.825 140.284 795.015 140.474C795.966 140.855 797.297 141.805 798.248 142.376C799.198 142.946 800.149 143.516 800.909 144.277H801.099C801.29 144.467 801.48 144.657 801.67 144.657C802.43 145.228 803.001 145.798 803.761 146.368L804.332 146.749C804.902 147.319 805.282 147.699 805.853 148.27L806.043 148.46C806.423 148.84 806.803 149.22 807.374 149.6L807.564 149.981C808.324 150.741 808.895 151.312 809.465 151.882L808.895 152.642L809.465 152.072L809.845 152.452C810.225 152.833 810.606 153.213 810.986 153.593L811.176 153.973C811.556 154.544 812.127 155.114 812.507 155.684C812.887 156.065 813.077 156.635 813.458 157.015L814.028 157.776C814.218 158.346 814.408 158.726 814.788 159.107L815.739 160.628C817.64 164.24 819.161 167.852 820.302 171.655ZM789.502 175.077C790.452 175.077 791.213 174.127 791.023 173.176C789.882 165.761 781.326 159.867 770.489 159.867C760.413 159.867 751.097 165.761 749.766 173.176C749.576 174.127 750.336 175.077 751.287 175.077H789.502Z"
            fill="black"
          />
          <path
            d="M882.982 135.341C883.933 135.341 884.694 136.102 884.503 137.052L883.553 160.628C883.553 161.578 882.792 162.149 881.842 162.149C879.18 161.959 873.666 161.578 870.434 162.339C866.822 163.099 864.73 165.951 864.16 167.282C862.449 170.704 862.449 173.936 862.449 177.739V234.396C862.449 235.157 861.688 235.917 860.928 235.917H830.888C829.938 235.917 829.367 235.157 829.367 234.396V137.052C829.367 136.102 829.938 135.341 830.888 135.341H859.027C859.787 135.341 860.548 136.102 860.548 137.052V139.904C860.548 140.474 861.308 140.855 861.878 140.474C868.533 136.292 876.328 135.531 882.982 135.341Z"
            fill="black"
          />
        </svg>