<svg width="892" height="287" viewBox="0 0 892 287" fill="none" xmlns="http://www.w3.org/2000/svg" id="Logo">
<path d="M11.6618 46.3923C11.6618 44.0823 13.5344 42.2096 15.8445 42.2096H166.424C168.734 42.2096 170.606 44.0823 170.606 46.3924V273.021C170.606 279.112 165.669 284.049 159.579 284.049H22.689C16.5988 284.049 11.6618 279.112 11.6618 273.021V46.3923Z" stroke="white" stroke-width="5.3235"/>
<path fill-rule="evenodd" clip-rule="evenodd" d="M72.1211 0H9V32.7015C9 36.4816 12.0644 39.546 15.8445 39.546H166.424C170.204 39.546 173.268 36.4816 173.268 32.7015V0H109.378C109.175 10.1148 100.913 18.252 90.7495 18.252C80.5863 18.252 72.3236 10.1148 72.1211 0Z" fill="white"/>
<rect x="18.125" y="36.5029" width="6.8445" height="5.3235" fill="white"/>
<rect x="33.335" y="36.5029" width="6.8445" height="5.3235" fill="white"/>
<rect x="48.5459" y="36.5029" width="6.8445" height="5.3235" fill="white"/>
<rect x="63.7549" y="36.5029" width="6.8445" height="5.3235" fill="white"/>
<rect x="78.9648" y="36.5029" width="6.8445" height="5.3235" fill="white"/>
<rect x="94.1748" y="36.5029" width="6.8445" height="5.3235" fill="white"/>
<rect x="109.385" y="36.5029" width="6.8445" height="5.3235" fill="white"/>
<rect x="124.596" y="36.5029" width="6.8445" height="5.3235" fill="white"/>
<rect x="139.805" y="36.5029" width="6.8445" height="5.3235" fill="white"/>
<rect x="155.015" y="36.5029" width="6.8445" height="5.3235" fill="white"/>
<path d="M37.8589 259.483H36.0023C35.1977 259.483 34.3931 259.39 33.5886 259.204C32.1651 258.895 31.4534 257.626 31.4534 255.398C31.4534 254.346 31.8247 252.675 32.5674 250.385C32.753 250.013 32.8768 249.673 32.9387 249.364C34.9811 243.113 36.8997 236.862 38.6945 230.611L43.429 215.293C47.4518 202.235 49.4633 195.674 49.4633 195.612C49.4633 195.551 52.9291 183.544 59.8607 159.593C71.1246 121.283 77.3445 100.302 78.5204 96.6509L79.6345 92.659C79.6345 92.3495 79.4488 92.1948 79.0775 92.1948C67.5041 92.4424 55.9307 92.7828 44.3574 93.216L36.0951 93.4945C24.8931 93.742 13.8767 94.5466 3.04601 95.9082H2.76751C1.15838 95.9082 0.353811 94.5157 0.353811 91.7306C0.353811 90.8023 0.570424 90.1524 1.00365 89.7811C1.43688 89.3479 2.30333 89.1313 3.60302 89.1313C11.463 89.1313 25.0168 88.7909 44.2645 88.1101C64.6881 87.615 76.8804 87.3674 80.8413 87.3674C81.1508 87.3055 81.3674 87.1508 81.4912 86.9032C83.3478 80.4048 85.7615 73.0709 88.7322 64.9015C89.3511 63.4161 90.3414 62.6734 91.7029 62.6734C93.0645 62.7353 94.5499 63.1686 96.159 63.9731C97.5206 64.5301 98.2014 65.5513 98.2014 67.0367C98.2014 67.4699 98.1085 67.9341 97.9229 68.4292C96.3137 72.1426 94.7974 75.9488 93.374 79.8478C91.7648 84.1182 90.9603 86.3153 90.9603 86.4391C90.9603 86.8723 91.1769 87.0889 91.6101 87.0889C103.74 86.9032 115.84 86.7795 127.908 86.7176L148.889 86.9032C149.879 86.9651 150.9 86.9961 151.953 86.9961C157.089 87.1199 161.298 87.3674 164.578 87.7388C168.291 87.9863 170.148 89.6883 170.148 92.8446C170.148 93.3398 169.993 94.0206 169.684 94.887C169.436 95.6916 168.26 96.4961 166.156 97.3007L165.135 97.3935C164.392 97.3935 163.65 97.0841 162.907 96.4652C162.226 95.7844 161.731 94.7942 161.422 93.4945C161.298 93.2469 161.081 93.0922 160.772 93.0303C160.462 92.9684 160.122 92.9375 159.751 92.9375C158.389 92.9375 157.461 92.8756 156.966 92.7518C150.529 92.3805 144.309 92.102 138.306 91.9163L118.254 91.8235C108.661 91.8235 99.0369 91.8854 89.3821 92.0091C88.7632 92.0091 83.5954 107.358 73.8787 138.055C64.2239 170.485 58.4373 190.197 56.5187 197.191C53.548 207.65 50.5154 219.595 47.4209 233.025L46.214 238.038C44.7906 243.732 43.7075 248.868 42.9648 253.448L42.315 257.069C42.0674 258.678 40.5821 259.483 37.8589 259.483Z" fill="white"/>
<path d="M208.628 135.341C209.388 135.341 210.149 136.101 210.149 137.052V234.396C210.149 235.156 209.388 235.917 208.628 235.917H180.489C179.539 235.917 178.968 235.156 178.968 234.396V137.052C178.968 136.101 179.539 135.341 180.489 135.341H208.628ZM208.628 103.78C209.388 103.78 210.149 104.54 210.149 105.301V125.834C210.149 126.785 209.388 127.546 208.628 127.546H180.489C179.539 127.546 178.968 126.785 178.968 125.834V105.301C178.968 104.54 179.539 103.78 180.489 103.78H208.628ZM315.135 211.771C315.896 212.341 316.086 213.292 315.705 214.052C314.755 215.383 313.614 217.094 313.044 217.855C312.093 219.186 310.952 220.517 309.812 221.657C309.812 221.657 309.812 221.657 309.812 221.848C309.431 222.228 308.671 222.988 308.1 223.559C308.1 223.559 307.91 223.559 307.91 223.749C307.34 224.129 306.96 224.699 306.389 225.08C306.199 225.27 305.819 225.65 305.629 225.84C305.439 226.03 305.249 226.22 305.058 226.411C297.263 232.875 287.757 237.058 277.68 238.579C277.3 238.579 276.92 238.579 276.54 238.579C276.159 238.769 275.779 238.769 275.399 238.769C274.638 238.769 274.068 238.959 273.308 238.959C273.117 238.959 272.927 238.959 272.737 238.959C271.977 238.959 271.026 238.959 270.266 238.959C240.796 238.959 217.031 215.383 217.031 186.484C217.031 157.395 240.796 133.82 270.266 133.82C271.026 133.82 271.977 133.82 272.737 133.82C272.927 133.82 273.117 133.82 273.308 133.82C274.068 134.01 274.638 134.01 275.399 134.01C275.779 134.01 276.159 134.2 276.54 134.2C276.92 134.2 277.3 134.2 277.68 134.2C287.757 135.721 297.263 139.904 305.058 146.368C305.249 146.558 305.439 146.748 305.629 146.938C305.819 147.319 306.199 147.509 306.389 147.699C306.96 148.269 307.34 148.649 307.91 149.03C307.91 149.22 308.1 149.22 308.1 149.41C308.671 149.79 309.241 150.361 309.621 150.931C309.812 150.931 309.812 151.121 309.812 151.121C310.952 152.452 312.093 153.593 313.044 154.924C313.994 156.254 314.945 157.585 315.896 159.106C316.276 159.677 316.086 160.437 315.515 160.817L301.256 168.993L292.89 173.746C292.32 174.126 291.369 173.936 290.799 173.366C286.236 166.141 279.582 162.338 271.977 162.338C264.372 162.338 257.717 165.571 253.154 170.894C249.352 175.077 247.07 180.4 247.07 186.484C247.07 192.378 249.352 197.892 253.154 201.884C257.717 207.208 264.372 210.63 271.977 210.63C279.582 210.63 286.236 206.638 290.799 199.603C291.369 198.842 292.32 198.652 292.89 199.033L315.135 211.771ZM380.28 186.484L408.608 233.445C409.179 234.586 408.418 235.917 407.277 235.917H374.576C374.005 235.917 373.435 235.537 373.245 235.156L357.084 204.926C356.324 203.596 354.042 204.166 354.042 205.687V234.396C354.042 235.156 353.282 235.917 352.521 235.917H324.383C323.432 235.917 322.862 235.156 322.862 234.396V105.301C322.862 104.54 323.432 103.78 324.383 103.78H352.521C353.282 103.78 354.042 104.54 354.042 105.301V165.571C354.042 167.282 356.324 167.852 357.084 166.331L373.245 136.291C373.435 135.721 374.005 135.341 374.576 135.341H407.277C408.418 135.341 409.179 136.862 408.608 137.812L380.28 184.773C380.089 185.344 380.089 185.914 380.28 186.484ZM505.778 171.655C507.299 176.408 508.06 181.351 508.06 186.484C508.06 189.336 507.68 192.758 507.109 195.8C507.109 196.561 506.349 197.131 505.588 197.131H435.242C433.911 197.131 433.151 198.462 433.721 199.603C438.094 206.828 445.889 211.391 454.445 211.391C461.669 211.391 468.514 208.349 473.267 202.075C473.647 201.694 474.218 201.314 474.978 201.504L501.786 206.257C502.927 206.447 503.497 207.588 502.927 208.539C502.356 209.87 501.596 211.391 501.215 212.151L500.835 212.912C500.265 213.672 499.885 214.243 499.504 215.193C498.744 216.144 498.173 216.904 497.603 217.665L497.223 218.045C497.033 218.425 496.843 218.615 496.652 218.806L496.462 219.186C496.082 219.756 495.702 220.136 495.322 220.517L494.941 220.897C494.371 221.657 493.801 222.228 493.23 222.798L492.85 223.178C492.28 223.749 491.899 224.129 491.519 224.509L491.329 224.699C490.949 225.08 490.378 225.46 489.998 225.84L489.428 226.411L488.857 225.84L489.238 226.411C488.477 227.171 487.907 227.741 487.146 228.122L486.576 228.692C485.625 229.262 484.865 229.833 483.914 230.403L483.724 230.593C482.773 231.164 481.823 231.734 480.682 232.304L480.492 232.495C480.302 232.685 479.921 232.875 479.731 232.875L479.541 233.065C479.161 233.255 478.591 233.445 478.21 233.635L478.02 233.825C477.07 234.206 476.119 234.586 475.168 234.966V235.156C474.408 235.346 474.028 235.537 473.457 235.727L472.697 235.917C472.126 236.107 471.366 236.487 470.795 236.677H470.605C469.845 236.867 469.084 237.058 468.324 237.248L467.753 237.438C466.232 237.818 464.711 238.198 463.19 238.388L462.62 238.579C460.909 238.769 459.388 238.959 457.677 238.959H457.106C456.156 239.149 455.395 239.149 454.635 239.149C453.874 239.149 453.114 239.149 452.163 238.959C451.973 238.959 451.783 238.959 451.593 238.959H451.403C450.832 238.959 450.262 238.959 449.692 238.769H449.501C449.311 238.769 449.121 238.769 448.931 238.769C447.98 238.769 447.22 238.579 446.65 238.388H446.459H446.079C445.509 238.388 444.748 238.198 444.178 238.008L443.417 237.818C442.847 237.818 442.277 237.628 441.706 237.438H441.516C441.326 237.438 441.326 237.438 441.136 237.438C440.185 237.058 439.425 236.867 438.854 236.677C438.094 236.487 437.333 236.297 436.573 235.917C436.383 235.917 436.193 235.917 436.003 235.727C435.432 235.537 434.862 235.346 434.291 235.156L434.101 234.966C433.911 234.966 433.911 234.966 433.721 234.776C432.961 234.586 432.2 234.206 431.63 233.825H431.44C430.869 233.635 430.109 233.255 429.538 232.875C429.348 232.685 429.158 232.685 428.968 232.495H428.778C428.398 232.304 427.827 231.924 427.447 231.734L426.686 231.354C426.116 230.974 425.546 230.593 424.785 230.023C418.511 225.84 412.997 220.136 409.005 213.672C408.625 213.102 408.434 212.722 408.054 212.151L407.864 211.771C407.674 211.391 407.294 210.82 407.104 210.25L406.913 209.87C406.723 209.68 406.723 209.68 406.723 209.489C405.583 207.398 404.822 205.117 404.062 202.835C403.491 201.694 403.301 200.554 402.921 199.603C402.731 198.842 402.541 197.892 402.35 197.131C401.78 194.47 401.59 191.808 401.4 189.146C401.4 188.195 401.4 187.435 401.4 186.484C401.4 185.534 401.4 184.583 401.4 183.823C401.59 179.069 402.541 174.506 404.062 169.943C404.442 168.422 405.012 167.282 405.583 165.951C405.773 165.19 406.153 164.62 406.533 163.859C406.533 163.669 406.533 163.479 406.723 163.289L406.913 162.909C406.913 162.909 407.104 162.719 407.104 162.529C407.294 162.338 407.294 162.148 407.484 161.958L407.864 161.198C408.244 160.437 408.625 159.867 409.005 159.106C412.997 152.642 418.511 147.128 424.785 142.756C425.546 142.375 426.116 141.995 426.686 141.615L427.447 141.235C427.827 140.854 428.398 140.664 428.778 140.474L428.968 140.284C429.158 140.284 429.348 140.094 429.538 140.094C430.109 139.714 430.869 139.333 431.44 138.953C432.2 138.763 432.961 138.383 433.721 138.002C433.911 138.002 433.911 138.002 434.101 137.812H434.291C434.862 137.622 435.432 137.432 436.003 137.242V137.052C436.193 137.052 436.383 137.052 436.573 136.862C437.333 136.672 438.094 136.481 438.854 136.101C439.615 135.911 440.375 135.721 441.136 135.531C441.326 135.531 441.326 135.531 441.516 135.341H441.706C442.277 135.151 442.847 135.151 443.417 134.96H443.798C444.558 134.77 445.699 134.58 446.459 134.39C446.65 134.39 446.65 134.39 446.65 134.39C447.22 134.39 447.98 134.2 448.931 134.2C449.121 134.2 449.311 134.01 449.501 134.01H449.692C450.262 134.01 450.832 134.01 451.403 134.01H451.593C451.783 133.82 451.973 133.82 452.163 133.82C453.114 133.82 453.874 133.82 454.635 133.82C455.395 133.82 456.156 133.82 457.106 133.82L457.677 134.01C459.388 134.01 460.909 134.2 462.43 134.39L463.19 134.58C464.711 134.77 466.232 134.96 467.753 135.341L468.324 135.531C469.084 135.721 469.845 136.101 470.605 136.291H470.795C471.366 136.481 472.126 136.672 472.697 136.862C472.887 137.052 473.077 137.052 473.267 137.242C474.028 137.432 474.408 137.622 474.978 137.812H475.358C476.119 138.193 477.07 138.763 478.02 139.143H478.21C478.591 139.523 479.161 139.714 479.541 139.904L479.351 140.664L479.731 139.904C479.921 140.094 480.302 140.284 480.492 140.474C481.442 140.854 482.773 141.805 483.724 142.375C484.675 142.946 485.625 143.516 486.386 144.277H486.576C486.766 144.467 486.956 144.657 487.146 144.657C487.907 145.227 488.477 145.798 489.238 146.368L489.808 146.748C490.378 147.319 490.759 147.699 491.329 148.269L491.519 148.459C491.899 148.84 492.28 149.22 492.85 149.6L493.04 149.98C493.801 150.741 494.371 151.311 494.941 151.882L494.371 152.642L494.941 152.072L495.322 152.452C495.702 152.832 496.082 153.212 496.462 153.593L496.652 153.973C497.033 154.543 497.603 155.114 497.983 155.684C498.364 156.064 498.554 156.635 498.934 157.015L499.504 157.775C499.694 158.346 499.885 158.726 500.265 159.106L501.215 160.627C503.117 164.24 504.638 167.852 505.778 171.655ZM474.978 175.077C475.929 175.077 476.689 174.126 476.499 173.176C475.358 165.761 466.803 159.867 455.966 159.867C445.889 159.867 436.573 165.761 435.242 173.176C435.052 174.126 435.812 175.077 436.763 175.077H474.978ZM568.402 209.87C569.353 209.87 570.113 210.63 569.923 211.581L566.311 235.346C566.311 236.107 565.741 236.677 564.98 236.867C561.368 237.058 552.242 237.438 549.39 237.438C549.2 237.438 549.01 237.438 548.819 237.438C531.898 236.677 522.772 227.932 522.772 212.151V163.859C522.772 163.099 522.012 162.338 521.251 162.338H510.794C509.844 162.338 509.273 161.578 509.273 160.627V136.862C509.273 136.101 509.844 135.341 510.794 135.341H521.251C522.012 135.341 522.772 134.58 522.772 133.63V106.061C522.772 105.301 523.533 104.54 524.483 104.54H552.432C553.382 104.54 554.143 105.301 554.143 106.061V133.63C554.143 134.58 554.903 135.341 555.664 135.341H566.121C567.071 135.341 567.832 136.101 567.832 136.862V160.627C567.832 161.578 567.071 162.338 566.121 162.338H555.664C554.903 162.338 554.143 163.099 554.143 163.859C554.143 172.225 554.143 196.941 554.143 197.131V197.892C553.953 200.934 553.763 205.117 556.234 207.588C557.755 209.109 560.037 209.87 562.889 209.87H568.402ZM611.344 135.341C612.104 135.341 612.865 136.101 612.865 137.052V234.396C612.865 235.156 612.104 235.917 611.344 235.917H583.205C582.255 235.917 581.684 235.156 581.684 234.396V137.052C581.684 136.101 582.255 135.341 583.205 135.341H611.344ZM611.344 103.78C612.104 103.78 612.865 104.54 612.865 105.301V125.834C612.865 126.785 612.104 127.546 611.344 127.546H583.205C582.255 127.546 581.684 126.785 581.684 125.834V105.301C581.684 104.54 582.255 103.78 583.205 103.78H611.344ZM717.355 234.206C717.545 235.156 716.785 235.917 715.834 235.917H626.095C624.954 235.917 624.194 234.586 624.764 233.445L663.93 165.571C664.5 164.43 663.74 163.099 662.599 163.099H629.137C628.376 163.099 627.616 162.529 627.426 161.768L624.574 137.242C624.384 136.291 625.144 135.341 626.095 135.341H714.123C715.264 135.341 716.024 136.672 715.454 137.812L676.288 205.877C675.718 206.828 676.478 208.159 677.619 208.159H712.792C713.552 208.159 714.313 208.919 714.313 209.68L717.355 234.206ZM820.302 171.655C821.823 176.408 822.583 181.351 822.583 186.484C822.583 189.336 822.203 192.758 821.633 195.8C821.633 196.561 820.872 197.131 820.112 197.131H749.765C748.434 197.131 747.674 198.462 748.244 199.603C752.617 206.828 760.412 211.391 768.968 211.391C776.193 211.391 783.037 208.349 787.79 202.075C788.171 201.694 788.741 201.314 789.501 201.504L816.309 206.257C817.45 206.447 818.02 207.588 817.45 208.539C816.879 209.87 816.119 211.391 815.739 212.151L815.358 212.912C814.788 213.672 814.408 214.243 814.028 215.193C813.267 216.144 812.697 216.904 812.126 217.665L811.746 218.045C811.556 218.425 811.366 218.615 811.176 218.806L810.986 219.186C810.605 219.756 810.225 220.136 809.845 220.517L809.465 220.897C808.894 221.657 808.324 222.228 807.753 222.798L807.373 223.178C806.803 223.749 806.423 224.129 806.042 224.509L805.852 224.699C805.472 225.08 804.902 225.46 804.521 225.84L803.951 226.411L803.381 225.84L803.761 226.411C803 227.171 802.43 227.741 801.669 228.122L801.099 228.692C800.148 229.262 799.388 229.833 798.437 230.403L798.247 230.593C797.297 231.164 796.346 231.734 795.205 232.304L795.015 232.495C794.825 232.685 794.445 232.875 794.255 232.875L794.064 233.065C793.684 233.255 793.114 233.445 792.734 233.635L792.543 233.825C791.593 234.206 790.642 234.586 789.692 234.966V235.156C788.931 235.346 788.551 235.537 787.98 235.727L787.22 235.917C786.65 236.107 785.889 236.487 785.319 236.677H785.129C784.368 236.867 783.608 237.058 782.847 237.248L782.277 237.438C780.756 237.818 779.235 238.198 777.714 238.388L777.143 238.579C775.432 238.769 773.911 238.959 772.2 238.959H771.63C770.679 239.149 769.919 239.149 769.158 239.149C768.398 239.149 767.637 239.149 766.686 238.959C766.496 238.959 766.306 238.959 766.116 238.959H765.926C765.356 238.959 764.785 238.959 764.215 238.769H764.025C763.835 238.769 763.644 238.769 763.454 238.769C762.504 238.769 761.743 238.579 761.173 238.388H760.983H760.602C760.032 238.388 759.272 238.198 758.701 238.008L757.941 237.818C757.37 237.818 756.8 237.628 756.23 237.438H756.039C755.849 237.438 755.849 237.438 755.659 237.438C754.709 237.058 753.948 236.867 753.378 236.677C752.617 236.487 751.857 236.297 751.096 235.917C750.906 235.917 750.716 235.917 750.526 235.727C749.955 235.537 749.385 235.346 748.815 235.156L748.625 234.966C748.434 234.966 748.434 234.966 748.244 234.776C747.484 234.586 746.723 234.206 746.153 233.825H745.963C745.392 233.635 744.632 233.255 744.062 232.875C743.871 232.685 743.681 232.685 743.491 232.495H743.301C742.921 232.304 742.35 231.924 741.97 231.734L741.21 231.354C740.639 230.974 740.069 230.593 739.308 230.023C733.034 225.84 727.521 220.136 723.528 213.672C723.148 213.102 722.958 212.722 722.577 212.151L722.387 211.771C722.197 211.391 721.817 210.82 721.627 210.25L721.437 209.87C721.247 209.68 721.247 209.68 721.247 209.489C720.106 207.398 719.345 205.117 718.585 202.835C718.014 201.694 717.824 200.554 717.444 199.603C717.254 198.842 717.064 197.892 716.874 197.131C716.303 194.47 716.113 191.808 715.923 189.146C715.923 188.195 715.923 187.435 715.923 186.484C715.923 185.534 715.923 184.583 715.923 183.823C716.113 179.069 717.064 174.506 718.585 169.943C718.965 168.422 719.535 167.282 720.106 165.951C720.296 165.19 720.676 164.62 721.056 163.859C721.056 163.669 721.056 163.479 721.247 163.289L721.437 162.909C721.437 162.909 721.627 162.719 721.627 162.529C721.817 162.338 721.817 162.148 722.007 161.958L722.387 161.198C722.768 160.437 723.148 159.867 723.528 159.106C727.521 152.642 733.034 147.128 739.308 142.756C740.069 142.375 740.639 141.995 741.21 141.615L741.97 141.235C742.35 140.854 742.921 140.664 743.301 140.474L743.491 140.284C743.681 140.284 743.871 140.094 744.062 140.094C744.632 139.714 745.392 139.333 745.963 138.953C746.723 138.763 747.484 138.383 748.244 138.002C748.434 138.002 748.434 138.002 748.625 137.812H748.815C749.385 137.622 749.955 137.432 750.526 137.242V137.052C750.716 137.052 750.906 137.052 751.096 136.862C751.857 136.672 752.617 136.481 753.378 136.101C754.138 135.911 754.899 135.721 755.659 135.531C755.849 135.531 755.849 135.531 756.039 135.341H756.23C756.8 135.151 757.37 135.151 757.941 134.96H758.321C759.081 134.77 760.222 134.58 760.983 134.39C761.173 134.39 761.173 134.39 761.173 134.39C761.743 134.39 762.504 134.2 763.454 134.2C763.644 134.2 763.835 134.01 764.025 134.01H764.215C764.785 134.01 765.356 134.01 765.926 134.01H766.116C766.306 133.82 766.496 133.82 766.686 133.82C767.637 133.82 768.398 133.82 769.158 133.82C769.919 133.82 770.679 133.82 771.63 133.82L772.2 134.01C773.911 134.01 775.432 134.2 776.953 134.39L777.714 134.58C779.235 134.77 780.756 134.96 782.277 135.341L782.847 135.531C783.608 135.721 784.368 136.101 785.129 136.291H785.319C785.889 136.481 786.65 136.672 787.22 136.862C787.41 137.052 787.6 137.052 787.79 137.242C788.551 137.432 788.931 137.622 789.501 137.812H789.882C790.642 138.193 791.593 138.763 792.543 139.143H792.734C793.114 139.523 793.684 139.714 794.064 139.904L793.874 140.664L794.255 139.904C794.445 140.094 794.825 140.284 795.015 140.474C795.966 140.854 797.297 141.805 798.247 142.375C799.198 142.946 800.148 143.516 800.909 144.277H801.099C801.289 144.467 801.479 144.657 801.669 144.657C802.43 145.227 803 145.798 803.761 146.368L804.331 146.748C804.902 147.319 805.282 147.699 805.852 148.269L806.042 148.459C806.423 148.84 806.803 149.22 807.373 149.6L807.563 149.98C808.324 150.741 808.894 151.311 809.465 151.882L808.894 152.642L809.465 152.072L809.845 152.452C810.225 152.832 810.605 153.212 810.986 153.593L811.176 153.973C811.556 154.543 812.126 155.114 812.507 155.684C812.887 156.064 813.077 156.635 813.457 157.015L814.028 157.775C814.218 158.346 814.408 158.726 814.788 159.106L815.739 160.627C817.64 164.24 819.161 167.852 820.302 171.655ZM789.501 175.077C790.452 175.077 791.213 174.126 791.022 173.176C789.882 165.761 781.326 159.867 770.489 159.867C760.412 159.867 751.096 165.761 749.765 173.176C749.575 174.126 750.336 175.077 751.286 175.077H789.501ZM882.982 135.341C883.933 135.341 884.693 136.101 884.503 137.052L883.552 160.627C883.552 161.578 882.792 162.148 881.841 162.148C879.18 161.958 873.666 161.578 870.434 162.338C866.821 163.099 864.73 165.951 864.16 167.282C862.449 170.704 862.449 173.936 862.449 177.739V234.396C862.449 235.156 861.688 235.917 860.928 235.917H830.888C829.937 235.917 829.367 235.156 829.367 234.396V137.052C829.367 136.101 829.937 135.341 830.888 135.341H859.026C859.787 135.341 860.547 136.101 860.547 137.052V139.904C860.547 140.474 861.308 140.854 861.878 140.474C868.533 136.291 876.328 135.531 882.982 135.341Z" fill="white"/>
</svg>
